<?xml version="1.0" standalone="no"?><!-- Generator: Gravit.io --><svg xmlns="http://www.w3.org/2000/svg" xmlns:xlink="http://www.w3.org/1999/xlink" style="isolation:isolate" viewBox="0 0 147 147" width="147" height="147"><defs><clipPath id="_clipPath_xG8UbnubBX2Pr4P52yYCKszpXhdh5N70"><rect width="147" height="147"/></clipPath></defs><g clip-path="url(#_clipPath_xG8UbnubBX2Pr4P52yYCKszpXhdh5N70)"><g id="Group"><path d=" M 73.6 40.2 C 55.1 40.2 40.1 55.2 40.1 73.7 C 40.1 92.2 55.1 107.2 73.6 107.2 C 92.1 107.2 107.1 92.2 107.1 73.7 C 107 55.2 92 40.2 73.6 40.2 Z " fill="rgb(56,128,255)"/><g id="Group"><path d=" M 106.3 27.9 C 106.3 19.456 113.156 12.6 121.6 12.6 C 130.044 12.6 136.9 19.456 136.9 27.9 C 136.9 36.344 130.044 43.2 121.6 43.2 C 113.156 43.2 106.3 36.344 106.3 27.9 Z " fill="rgb(56,128,255)"/></g><path d=" M 140.4 43.2 L 139.8 41.8 L 138.8 43 C 136.3 45.8 133.1 48 129.6 49.3 L 128.6 49.7 L 129 50.7 C 132.1 58 133.6 65.8 133.6 73.7 C 133.6 106.8 106.7 133.8 73.5 133.8 C 40.3 133.8 13.5 106.8 13.5 73.7 C 13.5 40.6 40.4 13.6 73.6 13.6 C 82.6 13.6 91.2 15.6 99.3 19.4 L 100.2 19.8 L 100.6 18.8 C 102.1 15.3 104.4 12.3 107.4 9.9 L 108.6 8.9 L 107.2 8.2 C 96.7 2.8 85.4 0 73.5 0 C 33 0 0 33 0 73.5 C 0 114 33 147 73.5 147 C 114 147 147 114 147 73.5 C 147 63.1 144.8 52.9 140.4 43.2 Z " fill="rgb(56,128,255)"/></g></g></svg>