<?xml version="1.0" encoding="utf-8"?>
<!-- Generator: Adobe Illustrator 19.0.0, SVG Export Plug-In . SVG Version: 6.00 Build 0)  -->
<svg version="1.1" id="Livello_1" xmlns="http://www.w3.org/2000/svg" xmlns:xlink="http://www.w3.org/1999/xlink" x="0px" y="0px"
	 viewBox="0 0 246 246" style="enable-background:new 0 0 739.5 246;" xml:space="preserve">
<style type="text/css">
	.st0{fill:url(#SVGID_1_);}
	.st1{fill:url(#SVGID_2_);}
	.st2{fill:#200A08;}
	.st3{fill:#FFFFFF;}
	.st4{fill:url(#SVGID_3_);}
	.st5{fill:url(#SVGID_4_);}
	.st6{fill:url(#SVGID_5_);}
	.st7{fill:url(#SVGID_6_);}
	.st8{fill:#546673;}
</style>
<g transform="translate(40,0)">
	<g>
		<linearGradient id="SVGID_1_" gradientUnits="userSpaceOnUse" x1="30.7948" y1="115.2722" x2="163.7294" y2="115.2722">
			<stop  offset="0" style="stop-color:#F8B336"/>
			<stop  offset="1" style="stop-color:#F09304"/>
		</linearGradient>
		<path class="st0" d="M163.7,73.7C163.7,37,134,7.3,97.3,7.3C60.6,7.3,30.8,37,30.8,73.7l0,0c0,66.8,61.4,144.5,98.2,149.6h0.3
			c0.6,0,1.1-0.4,1.1-1.1c0-0.3-0.4-0.9-0.4-0.9c-40.9-70.3,8.7-82.6,24.9-114.6c5.3-9.3,8.5-20.1,8.7-31.6
			C163.7,74.7,163.7,74.2,163.7,73.7C163.7,37,134,7.3,97.3,7.3C60.6,7.3,30.8,37,30.8,73.7"/>
		<g>
			<radialGradient id="SVGID_2_" cx="96.7098" cy="72.0227" r="54.0618" gradientUnits="userSpaceOnUse">
				<stop  offset="0" style="stop-color:#FFFFFF"/>
				<stop  offset="0.5455" style="stop-color:#FDFDFD"/>
				<stop  offset="0.742" style="stop-color:#F6F6F6"/>
				<stop  offset="0.8815" style="stop-color:#EBEBEB"/>
				<stop  offset="0.9941" style="stop-color:#DADADA"/>
				<stop  offset="1" style="stop-color:#D9D9D9"/>
			</radialGradient>
			<path class="st1" d="M150.8,72c0-29.8-24.2-54.1-54.1-54.1C66.9,18,42.6,42.2,42.6,72c0,29.9,24.2,54.1,54.1,54.1
				C126.6,126.1,150.8,101.9,150.8,72z"/>
			<path class="st2" d="M139.3,85.4c0-15.1-12.3-27.4-27.4-27.4c-15.1,0-27.4,12.3-27.4,27.4c0,15.1,12.3,27.4,27.4,27.4
				C127,112.8,139.3,100.5,139.3,85.4z"/>
			<path class="st3" d="M110.3,77c0-5-4.1-9.1-9.1-9.1c-5,0-9.1,4.1-9.1,9.1c0,5,4.1,9.1,9.1,9.1C106.2,86.1,110.3,82,110.3,77z"/>
		</g>
	</g>
	<g>
		<linearGradient id="SVGID_3_" gradientUnits="userSpaceOnUse" x1="6.5389" y1="125.6721" x2="139.4755" y2="125.6721">
			<stop  offset="0" style="stop-color:#90A3A6"/>
			<stop  offset="1" style="stop-color:#536C76"/>
		</linearGradient>
		<path class="st4" d="M139.5,84.1c0-36.7-29.8-66.5-66.5-66.5c-36.7,0-66.5,29.8-66.5,66.5l0,0c0,66.8,61.4,144.5,98.2,149.6h0.3
			c0.6,0,1.1-0.4,1.1-1.1c0-0.3-0.4-0.9-0.4-0.9c-40.9-70.3,8.7-82.6,24.9-114.6c5.3-9.3,8.5-20.1,8.7-31.6
			C139.5,85.1,139.5,84.6,139.5,84.1c0-36.7-29.8-66.5-66.5-66.5c-36.7,0-66.5,29.8-66.5,66.5"/>
		<g>
			<radialGradient id="SVGID_4_" cx="72.4559" cy="82.4226" r="54.062" gradientUnits="userSpaceOnUse">
				<stop  offset="0" style="stop-color:#FFFFFF"/>
				<stop  offset="0.5455" style="stop-color:#FDFDFD"/>
				<stop  offset="0.742" style="stop-color:#F6F6F6"/>
				<stop  offset="0.8815" style="stop-color:#EBEBEB"/>
				<stop  offset="0.9941" style="stop-color:#DADADA"/>
				<stop  offset="1" style="stop-color:#D9D9D9"/>
			</radialGradient>
			<path class="st5" d="M126.5,82.4c0-29.8-24.2-54.1-54.1-54.1c-29.9,0-54.1,24.2-54.1,54.1c0,29.9,24.2,54.1,54.1,54.1
				C102.3,136.5,126.5,112.3,126.5,82.4z"/>
			<linearGradient id="SVGID_5_" gradientUnits="userSpaceOnUse" x1="60.2206" y1="95.7844" x2="115.0135" y2="95.7844">
				<stop  offset="0" style="stop-color:#90A3A6"/>
				<stop  offset="1" style="stop-color:#536C76"/>
			</linearGradient>
			<path class="st6" d="M115,95.8c0-15.1-12.3-27.4-27.4-27.4c-15.1,0-27.4,12.3-27.4,27.4c0,15.1,12.3,27.4,27.4,27.4
				C102.7,123.2,115,110.9,115,95.8z"/>
			<path class="st3" d="M86,87.4c0-5-4.1-9.1-9.1-9.1c-5,0-9.1,4.1-9.1,9.1c0,5,4.1,9.1,9.1,9.1C81.9,96.5,86,92.4,86,87.4z"/>
		</g>
	</g>
</g>
</svg>
