<!DOCTYPE svg PUBLIC "-//W3C//DTD SVG 20010904//EN" "http://www.w3.org/TR/2001/REC-SVG-20010904/DTD/svg10.dtd">
<svg version="1.0" xmlns="http://www.w3.org/2000/svg" width="500px" height="497px" viewBox="0 0 5000 4970" preserveAspectRatio="xMidYMid meet">
<g id="layer101" fill="#eb5910" stroke="none">
 <path d="M2193 4954 c-268 -32 -534 -113 -788 -238 -93 -46 -215 -114 -270 -151 -620 -415 -1011 -1048 -1101 -1785 -23 -186 -15 -534 15 -703 96 -542 326 -984 706 -1362 390 -388 882 -627 1438 -700 137 -17 432 -20 575 -4 882 95 1653 661 2006 1472 97 223 162 461 192 707 23 187 15 534 -15 705 -46 261 -115 470 -232 705 -373 749 -1096 1258 -1925 1355 -157 18 -447 18 -601 -1z"/>
 </g>
<g id="layer102" fill="#e97119" stroke="none">
 <path d="M2193 4954 c-257 -31 -528 -111 -767 -227 -238 -116 -406 -229 -602 -406 -90 -80 -228 -227 -196 -207 8 5 379 14 825 22 902 15 1398 16 1301 4 -103 -14 -234 -49 -300 -81 -134 -64 -232 -190 -274 -354 -32 -126 -40 -300 -40 -896 l0 -569 -244 0 c-172 0 -245 -3 -248 -11 -3 -10 -1240 1490 -1264 1533 -8 14 -20 -1 -66 -85 -147 -268 -245 -577 -284 -897 -23 -186 -15 -534 15 -703 96 -542 326 -984 706 -1362 390 -388 882 -627 1438 -700 137 -17 432 -20 575 -4 882 95 1653 661 2006 1472 97 223 162 461 192 707 23 187 15 534 -15 705 -46 261 -115 470 -232 705 -373 749 -1096 1258 -1925 1355 -157 18 -447 18 -601 -1z m1465 -1951 l2 -1153 -160 0 -160 0 0 195 0 195 -285 0 -285 0 2 593 c3 556 4 594 22 630 40 82 137 107 414 107 l142 0 0 285 c0 157 -3 286 -7 286 -5 1 -69 5 -143 9 -105 5 -70 7 160 6 l295 -1 3 -1152z m-1518 -1349 c0 -39 -9 -38 -40 6 l-21 30 30 0 c29 0 31 -3 31 -36z"/>
 <path d="M559 4043 c-13 -16 -12 -17 4 -4 9 7 17 15 17 17 0 8 -8 3 -21 -13z"/>
 <path d="M494 3958 c-4 -7 -3 -8 4 -4 7 4 12 9 12 12 0 8 -9 4 -16 -8z"/>
 <path d="M464 3918 c-4 -7 -3 -8 4 -4 7 4 12 9 12 12 0 8 -9 4 -16 -8z"/>
 <path d="M444 3888 c-4 -7 -3 -8 4 -4 12 7 16 16 8 16 -3 0 -8 -5 -12 -12z"/>
 <path d="M424 3858 c-4 -7 -3 -8 4 -4 7 4 12 9 12 12 0 8 -9 4 -16 -8z"/>
 </g>
<g id="layer103" fill="#f3a037" stroke="none">
 <path d="M2193 4954 c-443 -53 -904 -249 -1248 -529 -134 -109 -192 -164 -175 -165 8 0 456 96 995 214 539 118 981 213 983 211 2 -1 -2 -120 -9 -264 -7 -144 -10 -262 -8 -264 2 -1 202 1 444 5 242 4 450 5 463 3 l22 -5 0 -1160 0 -1160 -160 0 -160 0 0 200 0 200 -285 0 -285 0 2 593 c3 556 4 594 22 630 40 82 137 107 414 107 l142 0 0 284 0 285 -57 7 c-31 4 -170 4 -307 1 -220 -5 -264 -9 -358 -31 -137 -32 -222 -73 -297 -141 -108 -101 -162 -241 -181 -472 -5 -69 -10 -382 -10 -694 l0 -569 -245 0 -245 0 0 -275 0 -275 244 0 243 0 7 -46 c3 -26 6 -222 6 -435 l0 -389 210 0 210 0 -1 -57 c0 -32 -8 -216 -17 -409 l-17 -351 62 -2 c86 -3 243 15 393 45 788 155 1463 699 1784 1437 97 223 162 461 192 707 23 187 15 534 -15 705 -46 261 -115 470 -232 705 -373 749 -1096 1258 -1925 1355 -157 18 -447 18 -601 -1z"/>
 <path d="M684 4188 c-4 -7 -3 -8 4 -4 12 7 16 16 8 16 -3 0 -8 -5 -12 -12z"/>
 <path d="M255 3556 c-97 -210 -175 -467 -212 -696 -23 -143 -26 -586 -5 -720 87 -563 323 -1034 717 -1426 336 -334 756 -561 1225 -663 l86 -18 -42 81 c-23 45 -416 858 -874 1809 -458 950 -837 1727 -842 1727 -5 0 -29 -42 -53 -94z"/>
 <path d="M2283 3 c4 -3 10 -3 14 0 3 4 0 7 -7 7 -7 0 -10 -3 -7 -7z"/>
 </g>
<g id="layer104" fill="#f4a83a" stroke="none">
 <path d="M2193 4954 c-415 -50 -842 -222 -1178 -474 -97 -73 -257 -211 -252 -217 2 -2 448 94 991 212 928 203 988 215 1014 201 15 -8 36 -20 47 -26 11 -5 34 -19 50 -30 17 -11 44 -26 60 -35 17 -8 44 -24 60 -35 17 -11 39 -24 50 -30 11 -6 34 -19 50 -30 17 -11 44 -26 60 -35 17 -8 44 -24 60 -35 17 -11 39 -24 50 -30 11 -6 34 -19 50 -30 17 -11 44 -26 60 -35 17 -8 44 -24 60 -35 17 -11 39 -24 50 -30 11 -6 34 -19 50 -30 17 -11 41 -24 54 -30 13 -6 43 -23 65 -38 23 -16 48 -31 56 -35 8 -4 29 -16 45 -27 17 -11 44 -26 60 -35 17 -8 44 -24 60 -35 17 -11 39 -24 50 -30 11 -6 34 -19 50 -30 17 -11 44 -26 60 -35 17 -8 44 -24 60 -35 17 -11 39 -24 50 -30 11 -6 34 -19 50 -30 17 -11 44 -26 60 -35 17 -8 44 -24 60 -35 17 -11 39 -24 50 -30 11 -6 34 -19 50 -30 17 -11 44 -26 60 -35 17 -8 44 -24 60 -35 17 -11 39 -24 50 -30 11 -6 34 -19 50 -29 54 -34 128 -72 132 -67 9 8 -117 242 -183 341 -411 617 -1056 1015 -1780 1100 -157 18 -447 18 -601 -1z"/>
 <path d="M2776 4139 c-343 -33 -522 -163 -598 -436 -22 -76 -22 -93 -26 -770 l-3 -693 -249 0 -250 0 0 -275 0 -275 250 0 250 0 0 -435 0 -435 210 0 210 0 0 -67 c0 -38 -7 -216 -16 -397 -8 -180 -13 -334 -10 -342 11 -27 223 -12 446 32 140 27 350 90 350 104 0 5 -10 20 -22 34 -13 13 -34 39 -48 57 -14 17 -34 42 -45 55 -11 12 -31 37 -45 55 -14 17 -34 42 -45 55 -11 12 -31 37 -45 54 -41 52 -90 112 -140 171 -14 16 -34 41 -45 55 -20 27 -57 72 -85 103 -59 67 -56 38 -52 488 l4 413 284 0 284 0 -2 273 -3 272 -283 3 -283 2 3 598 3 597 24 38 c46 75 133 97 383 97 l168 0 0 284 0 283 -67 6 c-92 9 -397 6 -507 -4z"/>
 <path d="M217 3469 c-91 -216 -154 -453 -183 -689 -23 -186 -15 -534 15 -703 79 -443 246 -817 518 -1157 99 -124 301 -319 434 -420 112 -84 256 -177 263 -169 5 6 -997 3229 -1003 3229 -3 0 -23 -41 -44 -91z"/>
 <path d="M3654 1841 c-2 -2 -4 -352 -4 -778 0 -629 2 -773 13 -773 25 0 217 121 340 213 328 246 606 600 771 980 48 109 130 346 123 354 -6 5 -1238 9 -1243 4z"/>
 <path d="M3613 263 c4 -3 10 -3 14 0 3 4 0 7 -7 7 -7 0 -10 -3 -7 -7z"/>
 </g>
<g id="layer105" fill="#fede8f" stroke="none">
 <path d="M2193 4954 c-443 -53 -904 -249 -1248 -529 -49 -41 -112 -95 -140 -120 -42 -39 -46 -46 -25 -41 14 2 462 100 997 217 l972 212 1001 -592 c551 -326 1004 -590 1007 -588 9 9 -115 240 -183 342 -411 617 -1056 1015 -1780 1100 -157 18 -447 18 -601 -1z"/>
 <path d="M2776 4139 c-343 -33 -522 -163 -598 -436 -22 -76 -22 -93 -26 -770 l-3 -693 -249 0 -250 0 0 -275 0 -275 250 0 250 0 0 -435 0 -435 210 0 210 0 0 -67 c0 -38 -7 -216 -16 -397 -8 -180 -13 -334 -10 -342 11 -27 223 -12 446 32 122 24 350 89 350 100 0 3 -121 152 -268 332 -148 180 -277 341 -288 357 -20 29 -20 42 -16 442 l4 413 284 0 284 0 -2 273 -3 272 -283 3 -283 2 3 598 3 597 24 38 c46 75 133 97 383 97 l168 0 0 284 0 283 -67 6 c-92 9 -397 6 -507 -4z"/>
 <path d="M160 3324 c-58 -155 -109 -384 -130 -582 -18 -164 -8 -514 19 -665 64 -360 186 -672 374 -959 54 -83 70 -95 62 -50 -3 15 -70 540 -150 1166 -80 627 -147 1141 -149 1143 -2 3 -14 -21 -26 -53z"/>
 <path d="M3664 1841 c-8 -8 -4 -1551 4 -1551 20 0 224 130 335 213 328 246 606 600 771 980 46 105 130 346 123 353 -5 5 -1228 10 -1233 5z"/>
 </g>
<g id="layer106" fill="#ffffff" stroke="none">
 <path d="M2776 4139 c-343 -33 -522 -163 -598 -436 -22 -76 -22 -93 -26 -770 l-3 -693 -249 0 -250 0 0 -275 0 -275 250 0 250 0 0 -435 0 -435 305 0 c237 0 305 3 306 13 4 114 6 196 7 500 l2 357 285 0 285 0 -2 273 -3 272 -283 3 -283 2 3 598 3 597 24 38 c46 75 133 97 383 97 l168 0 0 284 0 283 -67 6 c-92 9 -397 6 -507 -4z"/>
 </g>

</svg>